<svg width="50" height="50" viewBox="0 0 50 50" fill="none" xmlns="http://www.w3.org/2000/svg">
<rect width="50" height="50" rx="25" fill="black"/>
<path d="M38.1736 32.8274C37.6799 33.9628 37.0955 35.008 36.4184 35.9689C35.4954 37.2789 34.7397 38.1857 34.1573 38.6892C33.2544 39.5157 32.2871 39.939 31.2513 39.9631C30.5077 39.9631 29.6109 39.7525 28.567 39.3252C27.5197 38.8999 26.5572 38.6892 25.6771 38.6892C24.7541 38.6892 23.7643 38.8999 22.7054 39.3252C21.645 39.7525 20.7908 39.9751 20.1376 39.9972C19.1443 40.0393 18.1542 39.604 17.1659 38.6892C16.5352 38.1416 15.7462 37.2027 14.8011 35.8726C13.787 34.4523 12.9533 32.8053 12.3001 30.9276C11.6007 28.8994 11.25 26.9354 11.25 25.034C11.25 22.856 11.7228 20.9775 12.6697 19.4033C13.414 18.1388 14.4041 17.1414 15.6432 16.4091C16.8824 15.6769 18.2213 15.3038 19.6632 15.2799C20.4522 15.2799 21.4868 15.5228 22.7726 16.0003C24.0547 16.4794 24.8779 16.7223 25.2388 16.7223C25.5086 16.7223 26.4232 16.4382 27.9735 15.8719C29.4396 15.3467 30.6769 15.1292 31.6906 15.2149C34.4374 15.4356 36.501 16.5135 37.8734 18.4554C35.4168 19.9371 34.2016 22.0124 34.2258 24.6747C34.2479 26.7484 35.0037 28.4741 36.4889 29.8443C37.162 30.4802 37.9137 30.9717 38.75 31.3208C38.5686 31.8444 38.3772 32.3459 38.1736 32.8274V32.8274ZM31.874 8.15019C31.874 9.77556 31.2775 11.2932 30.0885 12.6978C28.6536 14.3677 26.9181 15.3327 25.0361 15.1804C25.0121 14.9854 24.9982 14.7802 24.9982 14.5645C24.9982 13.0042 25.6805 11.3343 26.8923 9.96893C27.4973 9.27762 28.2667 8.70281 29.1998 8.24427C30.1308 7.79257 31.0115 7.54278 31.8397 7.5C31.8639 7.71729 31.874 7.93459 31.874 8.15016V8.15019Z" fill="white"/>
</svg>
