<svg width="52" height="52" viewBox="0 0 52 52" fill="none" xmlns="http://www.w3.org/2000/svg">
<rect x="0.5" y="0.5" width="51" height="51" rx="25.5" fill="white" stroke="#CFCFCF"/>
<path d="M26.306 23.2727V29.0818H34.5436C34.1818 30.95 33.0964 32.5319 31.4684 33.5955L36.4359 37.3728C39.3302 34.7547 41 30.9092 41 26.341C41 25.2774 40.9026 24.2546 40.7217 23.2729L26.306 23.2727Z" fill="#4285F4"/>
<path d="M17.728 28.855L16.6076 29.6955L12.6418 32.7227C15.1604 37.6181 20.3224 41 26.3057 41C30.4383 41 33.9031 39.6636 36.4356 37.3727L31.4681 33.5954C30.1044 34.4954 28.3651 35.0409 26.3057 35.0409C22.3261 35.0409 18.9449 32.4091 17.7343 28.8636L17.728 28.855Z" fill="#34A853"/>
<path d="M12.6418 19.2773C11.5983 21.2954 11 23.5727 11 26C11 28.4272 11.5983 30.7045 12.6418 32.7226C12.6418 32.7362 17.7347 28.8499 17.7347 28.8499C17.4286 27.9499 17.2477 26.9954 17.2477 25.9998C17.2477 25.0042 17.4286 24.0498 17.7347 23.1498L12.6418 19.2773Z" fill="#FBBC05"/>
<path d="M26.3061 16.9727C28.5603 16.9727 30.564 17.7363 32.1642 19.2091L36.5473 14.9137C33.8896 12.4865 30.4388 11 26.3061 11C20.3227 11 15.1604 14.3682 12.6418 19.2773L17.7346 23.15C18.9451 19.6045 22.3264 16.9727 26.3061 16.9727Z" fill="#EA4335"/>
</svg>
