<svg width="26" height="31" viewBox="0 0 26 31" fill="none" xmlns="http://www.w3.org/2000/svg">
<path fill-rule="evenodd" clip-rule="evenodd" d="M11.4888 0.298763C10.0585 0.564044 8.24507 1.2659 6.66356 2.63294C4.81894 4.22741 3.31687 6.70513 3.09441 10.3623C3.0825 10.558 3.03074 10.7401 2.94531 10.8913L0.199281 15.7491C-0.21317 16.4788 0.0347841 17.4044 0.756763 17.8301L3.11187 19.2189L3.67295 24.5127C3.85056 26.1885 5.26407 27.4601 6.94921 27.4601H9.27681V29.6517C9.27681 30.0156 9.57182 30.3106 9.93573 30.3106C10.2996 30.3106 10.5947 30.0156 10.5947 29.6517V26.1422H6.94921C5.93813 26.1422 5.09002 25.3793 4.98346 24.3738L4.35248 18.4205L1.42616 16.6949C1.32302 16.6341 1.2876 16.5019 1.34652 16.3977L4.09255 11.5398C4.28724 11.1953 4.38716 10.8148 4.40982 10.4423C4.61054 7.14269 5.94677 4.99446 7.52536 3.62994C8.8946 2.44639 10.4662 1.83536 11.6842 1.60201C12.014 1.56597 12.2707 1.28647 12.2707 0.947017C12.2707 0.583104 11.9757 0.288095 11.6118 0.288095C11.5694 0.288095 11.5279 0.292104 11.4877 0.299764L11.4888 0.298763ZM22.5581 20.0777C21.9458 22.6918 21.6839 25.3753 21.6839 28.0619V29.6517C21.6839 30.0156 21.9789 30.3106 22.3429 30.3106C22.7068 30.3106 23.0018 30.0156 23.0018 29.6517V28.0619C23.0018 25.4416 23.259 22.8435 23.8533 20.3271C23.8721 20.2657 23.8823 20.2005 23.8823 20.133C23.8823 19.7691 23.5873 19.4741 23.2234 19.4741C22.8776 19.4741 22.594 19.7405 22.5666 20.0792L22.5581 20.0777ZM12.6349 14H14.9417L15.697 11.6783H19.3732L20.127 14H22.4339L18.9239 3.81821H16.1498L12.6349 14ZM18.8276 9.9979L17.5766 6.14492H17.4971L16.2436 9.9979H18.8276ZM25.8121 14V3.81821H23.6594V14H25.8121Z" fill="black"/>
</svg>
