<svg width="20" height="20" viewBox="0 0 20 20" fill="none" xmlns="http://www.w3.org/2000/svg">
<path d="M9.875 0H3C2.33696 0 1.70107 0.263392 1.23223 0.732233C0.763392 1.20107 0.5 1.83696 0.5 2.5V17.5C0.5 18.163 0.763392 18.7989 1.23223 19.2678C1.70107 19.7366 2.33696 20 3 20H13C13.663 20 14.2989 19.7366 14.7678 19.2678C15.2366 18.7989 15.5 18.163 15.5 17.5V5.625L9.875 0ZM9.875 1.25V3.75C9.875 4.24728 10.0725 4.72419 10.4242 5.07583C10.7758 5.42746 11.2527 5.625 11.75 5.625H14.25V17.5C14.25 17.8315 14.1183 18.1495 13.8839 18.3839C13.6495 18.6183 13.3315 18.75 13 18.75H3C2.66848 18.75 2.35054 18.6183 2.11612 18.3839C1.8817 18.1495 1.75 17.8315 1.75 17.5V2.5C1.75 2.16848 1.8817 1.85054 2.11612 1.61612C2.35054 1.3817 2.66848 1.25 3 1.25H9.875Z" fill="black"/>
</svg>
