<svg width="24" height="25" viewBox="0 0 24 25" fill="none" xmlns="http://www.w3.org/2000/svg">
<g clip-path="url(#clip0_341_1237)">
<path d="M15.75 13.25C15.75 14.2446 15.3549 15.1984 14.6517 15.9017C13.9484 16.6049 12.9946 17 12 17C11.0054 17 10.0516 16.6049 9.34835 15.9017C8.64509 15.1984 8.25 14.2446 8.25 13.25C8.25 12.2554 8.64509 11.3016 9.34835 10.5983C10.0516 9.89509 11.0054 9.5 12 9.5C12.9946 9.5 13.9484 9.89509 14.6517 10.5983C15.3549 11.3016 15.75 12.2554 15.75 13.25Z" fill="black"/>
<path d="M3 6.5C2.20435 6.5 1.44129 6.81607 0.87868 7.37868C0.316071 7.94129 0 8.70435 0 9.5L0 18.5C0 19.2956 0.316071 20.0587 0.87868 20.6213C1.44129 21.1839 2.20435 21.5 3 21.5H21C21.7956 21.5 22.5587 21.1839 23.1213 20.6213C23.6839 20.0587 24 19.2956 24 18.5V9.5C24 8.70435 23.6839 7.94129 23.1213 7.37868C22.5587 6.81607 21.7956 6.5 21 6.5H19.242C18.4464 6.49983 17.6835 6.18365 17.121 5.621L15.879 4.379C15.3165 3.81635 14.5536 3.50017 13.758 3.5H10.242C9.44642 3.50017 8.68348 3.81635 8.121 4.379L6.879 5.621C6.31652 6.18365 5.55358 6.49983 4.758 6.5H3ZM3.75 9.5C3.55109 9.5 3.36032 9.42098 3.21967 9.28033C3.07902 9.13968 3 8.94891 3 8.75C3 8.55109 3.07902 8.36032 3.21967 8.21967C3.36032 8.07902 3.55109 8 3.75 8C3.94891 8 4.13968 8.07902 4.28033 8.21967C4.42098 8.36032 4.5 8.55109 4.5 8.75C4.5 8.94891 4.42098 9.13968 4.28033 9.28033C4.13968 9.42098 3.94891 9.5 3.75 9.5ZM17.25 13.25C17.25 14.6424 16.6969 15.9777 15.7123 16.9623C14.7277 17.9469 13.3924 18.5 12 18.5C10.6076 18.5 9.27226 17.9469 8.28769 16.9623C7.30312 15.9777 6.75 14.6424 6.75 13.25C6.75 11.8576 7.30312 10.5223 8.28769 9.53769C9.27226 8.55312 10.6076 8 12 8C13.3924 8 14.7277 8.55312 15.7123 9.53769C16.6969 10.5223 17.25 11.8576 17.25 13.25Z" fill="black"/>
</g>
<defs>
<clipPath id="clip0_341_1237">
<rect width="24" height="24" fill="white" transform="translate(0 0.5)"/>
</clipPath>
</defs>
</svg>
