<svg width="14" height="14" viewBox="0 0 14 14" fill="none" xmlns="http://www.w3.org/2000/svg">
<g clip-path="url(#clip0_316_1085)">
<path d="M2.34325 10.4073C2.43407 10.4984 2.50367 10.6085 2.54707 10.7296C2.59048 10.8508 2.60663 10.98 2.59437 11.1081C2.53288 11.701 2.41629 12.2869 2.24612 12.8581C3.46675 12.5755 4.21225 12.2483 4.55088 12.0767C4.74294 11.9795 4.96413 11.9564 5.17212 12.012C5.76838 12.171 6.38292 12.251 7 12.25C10.4965 12.25 13.125 9.79387 13.125 7C13.125 4.207 10.4965 1.75 7 1.75C3.5035 1.75 0.875 4.207 0.875 7C0.875 8.2845 1.41488 9.47625 2.34325 10.4073ZM1.91188 13.8241C1.70456 13.8652 1.49657 13.9029 1.288 13.937C1.113 13.965 0.98 13.783 1.04912 13.6202C1.12682 13.437 1.19803 13.2511 1.26262 13.0629L1.26525 13.0541C1.48225 12.4241 1.659 11.6996 1.72375 11.025C0.650125 9.94875 0 8.54 0 7C0 3.61725 3.13425 0.875 7 0.875C10.8658 0.875 14 3.61725 14 7C14 10.3827 10.8658 13.125 7 13.125C6.3067 13.1259 5.61626 13.0359 4.94637 12.8573C4.49137 13.0874 3.51225 13.5065 1.91188 13.8241Z" fill="black"/>
</g>
<defs>
<clipPath id="clip0_316_1085">
<rect width="14" height="14" fill="white"/>
</clipPath>
</defs>
</svg>
