<svg width="11" height="11" viewBox="0 0 11 11" fill="none" xmlns="http://www.w3.org/2000/svg">
<path fill-rule="evenodd" clip-rule="evenodd" d="M1.13163 3.19413C1.16356 3.16212 1.20149 3.13672 1.24326 3.11939C1.28502 3.10206 1.32979 3.09314 1.375 3.09314C1.42022 3.09314 1.46499 3.10206 1.50675 3.11939C1.54851 3.13672 1.58645 3.16212 1.61838 3.19413L5.5 7.07644L9.38163 3.19413C9.41359 3.16217 9.45153 3.13682 9.49329 3.11952C9.53505 3.10222 9.57981 3.09332 9.625 3.09332C9.6702 3.09332 9.71496 3.10222 9.75672 3.11952C9.79848 3.13682 9.83642 3.16217 9.86838 3.19413C9.90034 3.22609 9.92569 3.26403 9.94299 3.30579C9.96029 3.34755 9.96919 3.39231 9.96919 3.4375C9.96919 3.4827 9.96029 3.52746 9.94299 3.56922C9.92569 3.61098 9.90034 3.64892 9.86838 3.68088L5.74338 7.80588C5.71145 7.83789 5.67351 7.86329 5.63175 7.88062C5.58999 7.89795 5.54522 7.90687 5.5 7.90687C5.45479 7.90687 5.41002 7.89795 5.36826 7.88062C5.32649 7.86329 5.28856 7.83789 5.25663 7.80588L1.13163 3.68088C1.09962 3.64895 1.07422 3.61101 1.05689 3.56925C1.03956 3.52749 1.03064 3.48272 1.03064 3.4375C1.03064 3.39229 1.03956 3.34752 1.05689 3.30576C1.07422 3.26399 1.09962 3.22606 1.13163 3.19413V3.19413Z" fill="#818181"/>
</svg>
