<svg width="22" height="16" viewBox="0 0 22 16" fill="none" xmlns="http://www.w3.org/2000/svg">
<path fill-rule="evenodd" clip-rule="evenodd" d="M2.78759 4.64592C2.84755 4.59935 2.91878 4.56241 2.9972 4.5372C3.07562 4.512 3.15968 4.49902 3.24459 4.49902C3.32949 4.49902 3.41356 4.512 3.49197 4.5372C3.57039 4.56241 3.64162 4.59935 3.70158 4.64592L10.9902 10.2929L18.2789 4.64592C18.3389 4.59943 18.4101 4.56255 18.4886 4.53739C18.567 4.51223 18.651 4.49929 18.7359 4.49929C18.8207 4.49929 18.9048 4.51223 18.9832 4.53739C19.0616 4.56255 19.1329 4.59943 19.1929 4.64592C19.2529 4.6924 19.3005 4.74759 19.333 4.80833C19.3654 4.86907 19.3822 4.93417 19.3822 4.99992C19.3822 5.06566 19.3654 5.13076 19.333 5.1915C19.3005 5.25224 19.2529 5.30743 19.1929 5.35392L11.4472 11.3539C11.3873 11.4005 11.316 11.4374 11.2376 11.4626C11.1592 11.4878 11.0751 11.5008 10.9902 11.5008C10.9053 11.5008 10.8213 11.4878 10.7428 11.4626C10.6644 11.4374 10.5932 11.4005 10.5332 11.3539L2.78759 5.35392C2.72748 5.30747 2.67979 5.2523 2.64725 5.19155C2.61471 5.13081 2.59796 5.06568 2.59796 4.99992C2.59796 4.93415 2.61471 4.86903 2.64725 4.80828C2.67979 4.74754 2.72748 4.69236 2.78759 4.64592Z" fill="#9B9B9B"/>
</svg>
