<svg width="52" height="52" viewBox="0 0 52 32" fill="none" xmlns="http://www.w3.org/2000/svg">
<path d="M33.9999 12.18V7C33.9999 6.73478 33.8946 6.48043 33.707 6.29289C33.5195 6.10536 33.2651 6 32.9999 6C32.7347 6 32.4803 6.10536 32.2928 6.29289C32.1053 6.48043 31.9999 6.73478 31.9999 7V12.18C31.4208 12.3902 30.9204 12.7736 30.5668 13.2782C30.2131 13.7827 30.0234 14.3839 30.0234 15C30.0234 15.6161 30.2131 16.2173 30.5668 16.7218C30.9204 17.2264 31.4208 17.6098 31.9999 17.82V25C31.9999 25.2652 32.1053 25.5196 32.2928 25.7071C32.4803 25.8946 32.7347 26 32.9999 26C33.2651 26 33.5195 25.8946 33.707 25.7071C33.8946 25.5196 33.9999 25.2652 33.9999 25V17.82C34.5791 17.6098 35.0795 17.2264 35.4331 16.7218C35.7867 16.2173 35.9764 15.6161 35.9764 15C35.9764 14.3839 35.7867 13.7827 35.4331 13.2782C35.0795 12.7736 34.5791 12.3902 33.9999 12.18ZM32.9999 16C32.8021 16 32.6088 15.9414 32.4443 15.8315C32.2799 15.7216 32.1517 15.5654 32.076 15.3827C32.0003 15.2 31.9805 14.9989 32.0191 14.8049C32.0577 14.6109 32.153 14.4327 32.2928 14.2929C32.4327 14.153 32.6108 14.0578 32.8048 14.0192C32.9988 13.9806 33.1999 14.0004 33.3826 14.0761C33.5653 14.1518 33.7215 14.28 33.8314 14.4444C33.9413 14.6089 33.9999 14.8022 33.9999 15C33.9999 15.2652 33.8946 15.5196 33.707 15.7071C33.5195 15.8946 33.2651 16 32.9999 16ZM26.9999 18.18V7C26.9999 6.73478 26.8946 6.48043 26.707 6.29289C26.5195 6.10536 26.2651 6 25.9999 6C25.7347 6 25.4803 6.10536 25.2928 6.29289C25.1053 6.48043 24.9999 6.73478 24.9999 7V18.18C24.4208 18.3902 23.9204 18.7736 23.5668 19.2782C23.2131 19.7827 23.0234 20.3839 23.0234 21C23.0234 21.6161 23.2131 22.2173 23.5668 22.7218C23.9204 23.2264 24.4208 23.6098 24.9999 23.82V25C24.9999 25.2652 25.1053 25.5196 25.2928 25.7071C25.4803 25.8946 25.7347 26 25.9999 26C26.2651 26 26.5195 25.8946 26.707 25.7071C26.8946 25.5196 26.9999 25.2652 26.9999 25V23.82C27.5791 23.6098 28.0795 23.2264 28.4331 22.7218C28.7867 22.2173 28.9764 21.6161 28.9764 21C28.9764 20.3839 28.7867 19.7827 28.4331 19.2782C28.0795 18.7736 27.5791 18.3902 26.9999 18.18ZM25.9999 22C25.8021 22 25.6088 21.9414 25.4443 21.8315C25.2799 21.7216 25.1517 21.5654 25.076 21.3827C25.0003 21.2 24.9805 20.9989 25.0191 20.8049C25.0577 20.6109 25.153 20.4327 25.2928 20.2929C25.4327 20.153 25.6108 20.0578 25.8048 20.0192C25.9988 19.9806 26.1999 20.0004 26.3826 20.0761C26.5653 20.1518 26.7215 20.28 26.8314 20.4444C26.9413 20.6089 26.9999 20.8022 26.9999 21C26.9999 21.2652 26.8946 21.5196 26.707 21.7071C26.5195 21.8946 26.2651 22 25.9999 22ZM19.9999 10.18V7C19.9999 6.73478 19.8946 6.48043 19.707 6.29289C19.5195 6.10536 19.2651 6 18.9999 6C18.7347 6 18.4803 6.10536 18.2928 6.29289C18.1053 6.48043 17.9999 6.73478 17.9999 7V10.18C17.4208 10.3902 16.9204 10.7736 16.5668 11.2782C16.2131 11.7827 16.0234 12.3839 16.0234 13C16.0234 13.6161 16.2131 14.2173 16.5668 14.7218C16.9204 15.2264 17.4208 15.6098 17.9999 15.82V25C17.9999 25.2652 18.1053 25.5196 18.2928 25.7071C18.4803 25.8946 18.7347 26 18.9999 26C19.2651 26 19.5195 25.8946 19.707 25.7071C19.8946 25.5196 19.9999 25.2652 19.9999 25V15.82C20.5791 15.6098 21.0795 15.2264 21.4331 14.7218C21.7867 14.2173 21.9764 13.6161 21.9764 13C21.9764 12.3839 21.7867 11.7827 21.4331 11.2782C21.0795 10.7736 20.5791 10.3902 19.9999 10.18ZM18.9999 14C18.8021 14 18.6088 13.9414 18.4443 13.8315C18.2799 13.7216 18.1517 13.5654 18.076 13.3827C18.0003 13.2 17.9805 12.9989 18.0191 12.8049C18.0577 12.6109 18.153 12.4327 18.2928 12.2929C18.4327 12.153 18.6108 12.0578 18.8048 12.0192C18.9988 11.9806 19.1999 12.0004 19.3826 12.0761C19.5653 12.1518 19.7215 12.28 19.8314 12.4444C19.9413 12.6089 19.9999 12.8022 19.9999 13C19.9999 13.2652 19.8946 13.5196 19.707 13.7071C19.5195 13.8946 19.2651 14 18.9999 14Z" fill="black"/>
</svg>
