<svg width="24" height="22" viewBox="0 0 24 22" fill="none" xmlns="http://www.w3.org/2000/svg">
<path fill-rule="evenodd" clip-rule="evenodd" d="M0.21967 0.71967C0.360322 0.579018 0.551088 0.5 0.75 0.5H23.25C23.4489 0.5 23.6397 0.579018 23.7803 0.71967C23.921 0.860322 24 1.05109 24 1.25V20.75C24 20.9489 23.921 21.1397 23.7803 21.2803C23.6397 21.421 23.4489 21.5 23.25 21.5H0.75C0.551088 21.5 0.360322 21.421 0.21967 21.2803C0.0790176 21.1397 0 20.9489 0 20.75V1.25C0 1.05109 0.0790176 0.860322 0.21967 0.71967ZM1.5 2V6.5H22.5V2H1.5ZM22.5 8H1.5V20H22.5V8ZM4.28033 4.78033C4.42098 4.63968 4.5 4.44891 4.5 4.25C4.5 4.05109 4.42098 3.86032 4.28033 3.71967C4.13968 3.57902 3.94891 3.5 3.75 3.5C3.55109 3.5 3.36032 3.57902 3.21967 3.71967C3.07902 3.86032 3 4.05109 3 4.25C3 4.44891 3.07902 4.63968 3.21967 4.78033C3.36032 4.92098 3.55109 5 3.75 5C3.94891 5 4.13968 4.92098 4.28033 4.78033ZM6.53033 4.78033C6.67098 4.63968 6.75 4.44891 6.75 4.25C6.75 4.05109 6.67098 3.86032 6.53033 3.71967C6.38968 3.57902 6.19891 3.5 6 3.5C5.80109 3.5 5.61032 3.57902 5.46967 3.71967C5.32902 3.86032 5.25 4.05109 5.25 4.25C5.25 4.44891 5.32902 4.63968 5.46967 4.78033C5.61032 4.92098 5.80109 5 6 5C6.19891 5 6.38968 4.92098 6.53033 4.78033ZM8.78033 4.78033C8.63968 4.92098 8.44891 5 8.25 5C8.05109 5 7.86032 4.92098 7.71967 4.78033C7.57902 4.63968 7.5 4.44891 7.5 4.25C7.5 4.05109 7.57902 3.86032 7.71967 3.71967C7.86032 3.57902 8.05109 3.5 8.25 3.5C8.44891 3.5 8.63968 3.57902 8.78033 3.71967C8.92098 3.86032 9 4.05109 9 4.25C9 4.44891 8.92098 4.63968 8.78033 4.78033ZM4.93799 13.82V14.945L9.43799 16.9265V15.6321L6.39857 14.4119V14.353L9.43799 13.1328V11.8384L4.93799 13.82ZM11.5314 17.9844L13.6408 10.1477H12.4678L10.3584 17.9844H11.5314ZM14.562 16.9265L19.062 14.945V13.82L14.562 11.8384V13.1328L17.6014 14.353V14.4119L14.562 15.6321V16.9265Z" fill="black"/>
</svg>
