<svg width="36" height="24" viewBox="0 0 36 24" fill="none" xmlns="http://www.w3.org/2000/svg">
<path d="M17.6842 0C12.547 0 5.56058 1.33827 5.55345 1.33964H5.55099C4.05008 1.64672 2.87788 2.84224 2.59539 4.35197L2.59046 4.35691L0.106086 17.9112L0.108553 17.9137C0.0391636 18.2474 0 18.5931 0 18.9474C0 21.7377 2.26232 24 5.05263 24C6.55124 24 7.88224 23.3342 8.80757 22.2977L8.82483 22.3076L10.7368 20.2105H17.6842H24.6316L26.5436 22.3076L26.5609 22.2977C27.4862 23.3342 28.8172 24 30.3158 24C33.1061 24 35.3684 21.7377 35.3684 18.9474C35.3684 18.5931 35.3293 18.2474 35.2599 17.9137L35.2623 17.9112L32.778 4.35691L32.773 4.35197C32.4904 2.84145 31.317 1.64595 29.815 1.33964H29.8125C29.8066 1.33827 22.8214 0 17.6842 0ZM8.8421 7.57895C9.53937 7.57895 10.1053 8.14484 10.1053 8.8421V10.1053H11.3684C12.0657 10.1053 12.6316 10.6712 12.6316 11.3684C12.6316 12.0657 12.0657 12.6316 11.3684 12.6316H10.1053V13.8947C10.1053 14.592 9.53937 15.1579 8.8421 15.1579C8.14484 15.1579 7.57895 14.592 7.57895 13.8947V12.6316H6.31579C5.61853 12.6316 5.05263 12.0657 5.05263 11.3684C5.05263 10.6712 5.61853 10.1053 6.31579 10.1053H7.57895V8.8421C7.57895 8.14484 8.14484 7.57895 8.8421 7.57895ZM26.5263 7.57895C27.2236 7.57895 27.7895 8.14484 27.7895 8.8421C27.7895 9.53937 27.2236 10.1053 26.5263 10.1053C25.8291 10.1053 25.2632 9.53937 25.2632 8.8421C25.2632 8.14484 25.8291 7.57895 26.5263 7.57895ZM24 10.1053C24.6973 10.1053 25.2632 10.6712 25.2632 11.3684C25.2632 12.0657 24.6973 12.6316 24 12.6316C23.3027 12.6316 22.7368 12.0657 22.7368 11.3684C22.7368 10.6712 23.3027 10.1053 24 10.1053ZM29.0526 10.1053C29.7499 10.1053 30.3158 10.6712 30.3158 11.3684C30.3158 12.0657 29.7499 12.6316 29.0526 12.6316C28.3554 12.6316 27.7895 12.0657 27.7895 11.3684C27.7895 10.6712 28.3554 10.1053 29.0526 10.1053ZM26.5263 12.6316C27.2236 12.6316 27.7895 13.1975 27.7895 13.8947C27.7895 14.592 27.2236 15.1579 26.5263 15.1579C25.8291 15.1579 25.2632 14.592 25.2632 13.8947C25.2632 13.1975 25.8291 12.6316 26.5263 12.6316Z" fill="black"/>
</svg>
