<svg width="24" height="24" viewBox="0 0 24 24" fill="none" xmlns="http://www.w3.org/2000/svg">
<g clip-path="url(#clip0_344_1456)">
<path d="M12 7.13086C11.3606 7.13086 10.7274 7.2568 10.1367 7.50149C9.54596 7.74618 9.00921 8.10483 8.55708 8.55696C8.10495 9.00908 7.7463 9.54584 7.50161 10.1366C7.25692 10.7273 7.13098 11.3605 7.13098 11.9999C7.13098 12.6393 7.25692 13.2724 7.50161 13.8631C7.7463 14.4539 8.10495 14.9906 8.55708 15.4428C9.00921 15.8949 9.54596 16.2535 10.1367 16.4982C10.7274 16.7429 11.3606 16.8689 12 16.8689C13.2913 16.8689 14.5298 16.3559 15.4429 15.4428C16.356 14.5296 16.869 13.2912 16.869 11.9999C16.869 10.7085 16.356 9.47007 15.4429 8.55696C14.5298 7.64384 13.2913 7.13086 12 7.13086ZM8.63098 11.9999C8.63098 11.1063 8.98593 10.2494 9.61774 9.61762C10.2495 8.98581 11.1065 8.63086 12 8.63086C12.8935 8.63086 13.7504 8.98581 14.3822 9.61762C15.014 10.2494 15.369 11.1063 15.369 11.9999C15.369 12.8934 15.014 13.7503 14.3822 14.3821C13.7504 15.0139 12.8935 15.3689 12 15.3689C11.1065 15.3689 10.2495 15.0139 9.61774 14.3821C8.98593 13.7503 8.63098 12.8934 8.63098 11.9999Z" fill="black"/>
<path d="M14.6937 2.01473C13.9032 -0.670273 10.0962 -0.670273 9.30574 2.01473L9.16474 2.49323C9.10953 2.68065 9.01308 2.85335 8.88246 2.99866C8.75184 3.14397 8.59036 3.25821 8.40985 3.333C8.22934 3.4078 8.03439 3.44125 7.83927 3.4309C7.64415 3.42056 7.45383 3.36668 7.28224 3.27323L6.84424 3.03323C4.38424 1.69523 1.69474 4.38623 3.03424 6.84473L3.27274 7.28273C3.3662 7.45431 3.42007 7.64464 3.43041 7.83976C3.44076 8.03487 3.40731 8.22983 3.33252 8.41034C3.25772 8.59085 3.14349 8.75233 2.99818 8.88295C2.85287 9.01357 2.68017 9.11002 2.49274 9.16523L2.01424 9.30623C-0.670762 10.0967 -0.670762 13.9037 2.01424 14.6942L2.49274 14.8352C2.68017 14.8904 2.85287 14.9869 2.99818 15.1175C3.14349 15.2481 3.25772 15.4096 3.33252 15.5901C3.40731 15.7706 3.44076 15.9656 3.43041 16.1607C3.42007 16.3558 3.3662 16.5461 3.27274 16.7177L3.03274 17.1557C1.69474 19.6157 4.38424 22.3067 6.84424 20.9657L7.28224 20.7272C7.45383 20.6338 7.64415 20.5799 7.83927 20.5695C8.03439 20.5592 8.22934 20.5927 8.40985 20.6674C8.59036 20.7422 8.75184 20.8565 8.88246 21.0018C9.01308 21.1471 9.10953 21.3198 9.16474 21.5072L9.30574 21.9857C10.0962 24.6707 13.9032 24.6707 14.6937 21.9857L14.8347 21.5072C14.8899 21.3198 14.9864 21.1471 15.117 21.0018C15.2476 20.8565 15.4091 20.7422 15.5896 20.6674C15.7701 20.5927 15.9651 20.5592 16.1602 20.5695C16.3553 20.5799 16.5457 20.6338 16.7172 20.7272L17.1552 20.9672C19.6152 22.3067 22.3062 19.6142 20.9652 17.1557L20.7267 16.7177C20.6333 16.5461 20.5794 16.3558 20.5691 16.1607C20.5587 15.9656 20.5922 15.7706 20.667 15.5901C20.7418 15.4096 20.856 15.2481 21.0013 15.1175C21.1466 14.9869 21.3193 14.8904 21.5067 14.8352L21.9852 14.6942C24.6702 13.9037 24.6702 10.0967 21.9852 9.30623L21.5067 9.16523C21.3193 9.11002 21.1466 9.01357 21.0013 8.88295C20.856 8.75233 20.7418 8.59085 20.667 8.41034C20.5922 8.22983 20.5587 8.03487 20.5691 7.83976C20.5794 7.64464 20.6333 7.45431 20.7267 7.28273L20.9667 6.84473C22.3062 4.38473 19.6137 1.69523 17.1552 3.03473L16.7172 3.27323C16.5457 3.36668 16.3553 3.42056 16.1602 3.4309C15.9651 3.44125 15.7701 3.4078 15.5896 3.333C15.4091 3.25821 15.2476 3.14397 15.117 2.99866C14.9864 2.85335 14.8899 2.68065 14.8347 2.49323L14.6937 2.01473ZM10.7442 2.43923C11.1132 1.18673 12.8862 1.18673 13.2552 2.43923L13.3962 2.91773C13.5148 3.31985 13.7218 3.69036 14.0021 4.00208C14.2825 4.31379 14.629 4.55882 15.0164 4.7192C15.4037 4.87957 15.822 4.95123 16.2407 4.92891C16.6593 4.90659 17.0676 4.79087 17.4357 4.59023L17.8722 4.35023C19.0182 3.72773 20.2722 4.98023 19.6482 6.12773L19.4097 6.56573C19.2094 6.93387 19.094 7.34217 19.0719 7.76071C19.0498 8.17925 19.1217 8.59743 19.2822 8.9846C19.4427 9.37178 19.6878 9.71813 19.9995 9.99829C20.3112 10.2785 20.6817 10.4853 21.0837 10.6037L21.5607 10.7447C22.8132 11.1137 22.8132 12.8867 21.5607 13.2557L21.0822 13.3967C20.6801 13.5153 20.3096 13.7223 19.9979 14.0026C19.6862 14.283 19.4411 14.6295 19.2808 15.0168C19.1204 15.4042 19.0487 15.8225 19.0711 16.2411C19.0934 16.6598 19.2091 17.0681 19.4097 17.4362L19.6497 17.8727C20.2722 19.0187 19.0197 20.2727 17.8722 19.6487L17.4357 19.4102C17.0675 19.2096 16.6591 19.0939 16.2404 19.0717C15.8217 19.0495 15.4033 19.1213 15.0159 19.2818C14.6285 19.4423 14.282 19.6875 14.0018 19.9994C13.7215 20.3113 13.5146 20.682 13.3962 21.0842L13.2552 21.5612C12.8862 22.8137 11.1132 22.8137 10.7442 21.5612L10.6032 21.0827C10.4847 20.6808 10.2777 20.3105 9.99743 19.9989C9.7172 19.6874 9.37082 19.4425 8.98367 19.2821C8.59652 19.1217 8.1784 19.05 7.75994 19.0722C7.34148 19.0944 6.93328 19.2099 6.56524 19.4102L6.12724 19.6502C4.98124 20.2727 3.72724 19.0202 4.35124 17.8727L4.58974 17.4362C4.79067 17.0681 4.90661 16.6596 4.92908 16.2408C4.95154 15.822 4.87995 15.4034 4.71955 15.0159C4.55916 14.6284 4.31403 14.2816 4.00216 14.0012C3.69028 13.7208 3.31958 13.5137 2.91724 13.3952L2.43874 13.2542C1.18624 12.8852 1.18624 11.1122 2.43874 10.7432L2.91724 10.6022C3.31895 10.4836 3.68905 10.2766 4.00045 9.99651C4.31186 9.71638 4.55668 9.37017 4.71702 8.98321C4.87735 8.59625 4.94913 8.17834 4.92711 7.76006C4.90509 7.34177 4.78982 6.93371 4.58974 6.56573L4.34974 6.12773C3.72724 4.98173 4.97974 3.72773 6.12724 4.35173L6.56524 4.59023C6.93328 4.79059 7.34148 4.90609 7.75994 4.92826C8.1784 4.95043 8.59652 4.87871 8.98367 4.71835C9.37082 4.558 9.7172 4.31307 9.99743 4.00151C10.2777 3.68995 10.4847 3.31964 10.6032 2.91773L10.7442 2.43923Z" fill="black"/>
</g>
<defs>
<clipPath id="clip0_344_1456">
<rect width="24" height="24" fill="white"/>
</clipPath>
</defs>
</svg>
