<svg width="15" height="11" viewBox="0 0 15 11" fill="none" xmlns="http://www.w3.org/2000/svg">
<path fill-rule="evenodd" clip-rule="evenodd" d="M4.35564 9.91971C4.31199 9.88923 4.27735 9.85303 4.25372 9.81316C4.23009 9.7733 4.21793 9.73056 4.21793 9.6874C4.21793 9.64424 4.23009 9.60151 4.25372 9.56164C4.27735 9.52178 4.31199 9.48557 4.35564 9.45509L9.6497 5.7499L4.35564 2.04471C4.26762 1.9831 4.21817 1.89954 4.21817 1.8124C4.21817 1.72527 4.26762 1.6417 4.35564 1.58009C4.44366 1.51848 4.56304 1.48386 4.68752 1.48386C4.81199 1.48386 4.93137 1.51848 5.01939 1.58009L10.6444 5.51759C10.688 5.54807 10.7227 5.58428 10.7463 5.62414C10.7699 5.66401 10.7821 5.70674 10.7821 5.7499C10.7821 5.79306 10.7699 5.8358 10.7463 5.87566C10.7227 5.91552 10.688 5.95173 10.6444 5.98221L5.01939 9.91971C4.97585 9.95027 4.92412 9.97452 4.86717 9.99106C4.81022 10.0076 4.74917 10.0161 4.68752 10.0161C4.62586 10.0161 4.56481 10.0076 4.50786 9.99106C4.45091 9.97452 4.39918 9.95027 4.35564 9.91971Z" fill="#6E6E6E"/>
</svg>
