<svg width="17" height="17" viewBox="0 0 17 17" fill="none" xmlns="http://www.w3.org/2000/svg">
<path d="M7.08325 8.5C7.08325 8.78019 7.16634 9.05409 7.322 9.28706C7.47767 9.52003 7.69892 9.7016 7.95778 9.80883C8.21665 9.91605 8.50149 9.94411 8.7763 9.88945C9.0511 9.83478 9.30353 9.69986 9.50165 9.50173C9.69978 9.30361 9.8347 9.05118 9.88936 8.77638C9.94403 8.50157 9.91597 8.21673 9.80875 7.95786C9.70152 7.699 9.51995 7.47775 9.28698 7.32208C9.05401 7.16642 8.78011 7.08333 8.49992 7.08333C8.1242 7.08333 7.76386 7.23259 7.49818 7.49827C7.23251 7.76394 7.08325 8.12428 7.08325 8.5ZM7.08325 13.4583C7.08325 13.7385 7.16634 14.0124 7.322 14.2454C7.47767 14.4784 7.69892 14.6599 7.95778 14.7672C8.21665 14.8744 8.50149 14.9024 8.7763 14.8478C9.0511 14.7931 9.30353 14.6582 9.50165 14.4601C9.69978 14.2619 9.8347 14.0095 9.88936 13.7347C9.94403 13.4599 9.91597 13.1751 9.80875 12.9162C9.70152 12.6573 9.51995 12.4361 9.28698 12.2804C9.05401 12.1248 8.78011 12.0417 8.49992 12.0417C8.1242 12.0417 7.76386 12.1909 7.49818 12.4566C7.23251 12.7223 7.08325 13.0826 7.08325 13.4583ZM7.08325 3.54167C7.08325 3.82186 7.16634 4.09575 7.322 4.32872C7.47767 4.56169 7.69892 4.74327 7.95778 4.8505C8.21665 4.95772 8.50149 4.98577 8.7763 4.93111C9.0511 4.87645 9.30353 4.74152 9.50165 4.5434C9.69978 4.34528 9.8347 4.09285 9.88936 3.81804C9.94403 3.54324 9.91597 3.25839 9.80875 2.99953C9.70152 2.74067 9.51995 2.51942 9.28698 2.36375C9.05401 2.20809 8.78011 2.125 8.49992 2.125C8.1242 2.125 7.76386 2.27426 7.49818 2.53993C7.23251 2.80561 7.08325 3.16594 7.08325 3.54167Z" fill="#999999"/>
</svg>
