<svg width="24" height="24" viewBox="0 0 24 24" fill="none" xmlns="http://www.w3.org/2000/svg">
<g clip-path="url(#clip0_344_1487)">
<path fill-rule="evenodd" clip-rule="evenodd" d="M23.781 7.71936C23.8508 7.78903 23.9062 7.8718 23.944 7.96291C23.9818 8.05403 24.0013 8.15171 24.0013 8.25036C24.0013 8.34901 23.9818 8.4467 23.944 8.53781C23.9062 8.62893 23.8508 8.7117 23.781 8.78136L19.281 13.2814C19.2113 13.3512 19.1285 13.4066 19.0374 13.4444C18.9463 13.4822 18.8486 13.5017 18.75 13.5017C18.6513 13.5017 18.5536 13.4822 18.4625 13.4444C18.3714 13.4066 18.2886 13.3512 18.219 13.2814L15.969 11.0314C15.8281 10.8905 15.749 10.6995 15.749 10.5004C15.749 10.3012 15.8281 10.1102 15.969 9.96936C16.1098 9.82853 16.3008 9.74942 16.5 9.74942C16.6991 9.74942 16.8901 9.82853 17.031 9.96936L18.75 11.6899L22.719 7.71936C22.7886 7.64952 22.8714 7.5941 22.9625 7.55629C23.0536 7.51849 23.1513 7.49902 23.25 7.49902C23.3486 7.49902 23.4463 7.51849 23.5374 7.55629C23.6285 7.5941 23.7113 7.64952 23.781 7.71936Z" fill="black"/>
<path d="M1.5 21C1.5 21 0 21 0 19.5C0 18 1.5 13.5 9 13.5C16.5 13.5 18 18 18 19.5C18 21 16.5 21 16.5 21H1.5ZM9 12C10.1935 12 11.3381 11.5259 12.182 10.682C13.0259 9.83807 13.5 8.69347 13.5 7.5C13.5 6.30653 13.0259 5.16193 12.182 4.31802C11.3381 3.47411 10.1935 3 9 3C7.80653 3 6.66193 3.47411 5.81802 4.31802C4.97411 5.16193 4.5 6.30653 4.5 7.5C4.5 8.69347 4.97411 9.83807 5.81802 10.682C6.66193 11.5259 7.80653 12 9 12Z" fill="black"/>
</g>
<defs>
<clipPath id="clip0_344_1487">
<rect width="24" height="24" fill="white"/>
</clipPath>
</defs>
</svg>
