<svg width="14" height="14" viewBox="0 0 14 14" fill="none" xmlns="http://www.w3.org/2000/svg">
<g clip-path="url(#clip0_290_2132)">
<path d="M14 7C14 8.85652 13.2625 10.637 11.9497 11.9497C10.637 13.2625 8.85652 14 7 14C5.14348 14 3.36301 13.2625 2.05025 11.9497C0.737498 10.637 0 8.85652 0 7C0 5.14348 0.737498 3.36301 2.05025 2.05025C3.36301 0.737498 5.14348 0 7 0C8.85652 0 10.637 0.737498 11.9497 2.05025C13.2625 3.36301 14 5.14348 14 7ZM7.4375 3.9375C7.4375 3.82147 7.39141 3.71019 7.30936 3.62814C7.22731 3.54609 7.11603 3.5 7 3.5C6.88397 3.5 6.77269 3.54609 6.69064 3.62814C6.60859 3.71019 6.5625 3.82147 6.5625 3.9375V6.5625H3.9375C3.82147 6.5625 3.71019 6.60859 3.62814 6.69064C3.54609 6.77269 3.5 6.88397 3.5 7C3.5 7.11603 3.54609 7.22731 3.62814 7.30936C3.71019 7.39141 3.82147 7.4375 3.9375 7.4375H6.5625V10.0625C6.5625 10.1785 6.60859 10.2898 6.69064 10.3719C6.77269 10.4539 6.88397 10.5 7 10.5C7.11603 10.5 7.22731 10.4539 7.30936 10.3719C7.39141 10.2898 7.4375 10.1785 7.4375 10.0625V7.4375H10.0625C10.1785 7.4375 10.2898 7.39141 10.3719 7.30936C10.4539 7.22731 10.5 7.11603 10.5 7C10.5 6.88397 10.4539 6.77269 10.3719 6.69064C10.2898 6.60859 10.1785 6.5625 10.0625 6.5625H7.4375V3.9375Z" fill="black"/>
</g>
<defs>
<clipPath id="clip0_290_2132">
<rect width="14" height="14" fill="white"/>
</clipPath>
</defs>
</svg>
