<svg width="14" height="13" viewBox="0 0 14 13" fill="none" xmlns="http://www.w3.org/2000/svg">
<g clip-path="url(#clip0_344_1545)">
<path d="M13.8125 6.5C13.8125 8.22391 13.0849 9.87721 11.7897 11.0962C10.4945 12.3152 8.7379 13 6.90625 13C5.0746 13 3.31797 12.3152 2.02279 11.0962C0.727621 9.87721 0 8.22391 0 6.5C0 4.77609 0.727621 3.12279 2.02279 1.90381C3.31797 0.68482 5.0746 0 6.90625 0C8.7379 0 10.4945 0.68482 11.7897 1.90381C13.0849 3.12279 13.8125 4.77609 13.8125 6.5V6.5ZM4.62201 3.77487C4.54096 3.69859 4.43103 3.65574 4.31641 3.65574C4.20178 3.65574 4.09186 3.69859 4.0108 3.77487C3.92975 3.85116 3.88422 3.95462 3.88422 4.0625C3.88422 4.17038 3.92975 4.27384 4.0108 4.35013L6.29591 6.5L4.0108 8.64987C3.97067 8.68765 3.93884 8.73249 3.91712 8.78184C3.8954 8.83119 3.88422 8.88408 3.88422 8.9375C3.88422 8.99092 3.8954 9.04381 3.91712 9.09316C3.93884 9.14251 3.97067 9.18735 4.0108 9.22513C4.09186 9.30141 4.20178 9.34426 4.31641 9.34426C4.37316 9.34426 4.42936 9.33374 4.4818 9.3133C4.53423 9.29286 4.58188 9.2629 4.62201 9.22513L6.90625 7.07444L9.19049 9.22513C9.23062 9.2629 9.27827 9.29286 9.3307 9.3133C9.38314 9.33374 9.43934 9.34426 9.49609 9.34426C9.55285 9.34426 9.60905 9.33374 9.66148 9.3133C9.71392 9.29286 9.76156 9.2629 9.8017 9.22513C9.84183 9.18735 9.87366 9.14251 9.89538 9.09316C9.9171 9.04381 9.92828 8.99092 9.92828 8.9375C9.92828 8.88408 9.9171 8.83119 9.89538 8.78184C9.87366 8.73249 9.84183 8.68765 9.8017 8.64987L7.51659 6.5L9.8017 4.35013C9.84183 4.31235 9.87366 4.26751 9.89538 4.21816C9.9171 4.16881 9.92828 4.11592 9.92828 4.0625C9.92828 4.00908 9.9171 3.95619 9.89538 3.90684C9.87366 3.85749 9.84183 3.81265 9.8017 3.77487C9.76156 3.7371 9.71392 3.70714 9.66148 3.6867C9.60905 3.66626 9.55285 3.65574 9.49609 3.65574C9.43934 3.65574 9.38314 3.66626 9.3307 3.6867C9.27827 3.70714 9.23062 3.7371 9.19049 3.77487L6.90625 5.92556L4.62201 3.77487Z" fill="#FF0A0A"/>
</g>
<defs>
<clipPath id="clip0_344_1545">
<rect width="13.8125" height="13" fill="white"/>
</clipPath>
</defs>
</svg>
