<svg width="21" height="24" viewBox="0 0 21 24" fill="none" xmlns="http://www.w3.org/2000/svg">
<path fill-rule="evenodd" clip-rule="evenodd" d="M10.5 0C9.46501 0 7.73551 0.3975 6.10801 0.84C4.65422 1.24009 3.2103 1.67521 1.77751 2.145C1.36485 2.28128 0.998994 2.5312 0.721983 2.86605C0.444973 3.20091 0.268039 3.60711 0.211508 4.038C-0.682492 10.7535 1.39201 15.7305 3.90901 19.023C4.97638 20.4314 6.24905 21.6717 7.68451 22.7025C8.18087 23.0592 8.70678 23.3728 9.25651 23.64C9.67801 23.838 10.128 24 10.5 24C10.872 24 11.3235 23.838 11.7435 23.64C12.2932 23.3728 12.8191 23.0592 13.3155 22.7025C14.751 21.6718 16.0237 20.4315 17.091 19.023C19.608 15.7305 21.6825 10.7535 20.7885 4.038C20.732 3.60711 20.555 3.20091 20.278 2.86605C20.001 2.5312 19.6352 2.28128 19.2225 2.145C18.2355 1.8225 16.557 1.29 14.892 0.84C13.2645 0.3975 11.535 0 10.5 0ZM13.4167 7.95833H14C14.6417 7.95833 15.1667 8.48333 15.1667 9.125V14.9583C15.1667 15.6 14.6417 16.125 14 16.125H7.00001C6.35834 16.125 5.83334 15.6 5.83334 14.9583V9.125C5.83334 8.48333 6.35834 7.95833 7.00001 7.95833H7.58334V6.79167C7.58334 5.18167 8.89001 3.875 10.5 3.875C12.11 3.875 13.4167 5.18167 13.4167 6.79167V7.95833ZM10.5 5.04167C9.53168 5.04167 8.75001 5.82333 8.75001 6.79167V7.95833H12.25V6.79167C12.25 5.82333 11.4683 5.04167 10.5 5.04167ZM7.00001 14.9583H14V9.125H7.00001V14.9583ZM11.6667 12.0417C11.6667 12.6833 11.1417 13.2083 10.5 13.2083C9.85834 13.2083 9.33334 12.6833 9.33334 12.0417C9.33334 11.4 9.85834 10.875 10.5 10.875C11.1417 10.875 11.6667 11.4 11.6667 12.0417Z" fill="black"/>
</svg>
