<svg width="37" height="37" viewBox="0 0 37 37" fill="none" xmlns="http://www.w3.org/2000/svg">
<path d="M9.16478 12.9547L11.7663 17.5074C12.0432 17.9919 12.1816 18.2341 12.1816 18.4997C12.1816 18.7652 12.0432 19.0075 11.7663 19.492L9.16478 24.0446C7.92648 26.2117 7.30733 27.2952 7.79015 27.8325C8.27298 28.3698 9.41629 27.8696 11.7029 26.8692L26.6452 20.332C28.4407 19.5465 29.3384 19.1537 29.3384 18.4997C29.3384 17.8457 28.4407 17.4529 26.6452 16.6674L11.7029 10.1301C9.41629 9.12971 8.27298 8.62952 7.79015 9.16684C7.30733 9.70415 7.92648 10.7877 9.16478 12.9547Z" stroke="black"/>
</svg>
