<svg width="30" height="30" viewBox="0 0 30 30" fill="none" xmlns="http://www.w3.org/2000/svg">
<g clip-path="url(#clip0_351_2135)">
<path d="M0 15C0 11.0218 1.58035 7.20644 4.3934 4.3934C7.20644 1.58035 11.0218 0 15 0C18.9782 0 22.7936 1.58035 25.6066 4.3934C28.4196 7.20644 30 11.0218 30 15C30 18.9782 28.4196 22.7936 25.6066 25.6066C22.7936 28.4196 18.9782 30 15 30C11.0218 30 7.20644 28.4196 4.3934 25.6066C1.58035 22.7936 0 18.9782 0 15ZM14.0625 2.01938C12.8062 2.40188 11.5594 3.55687 10.5244 5.4975C10.2562 6 10.0069 6.5475 9.78375 7.1325C11.1056 7.42687 12.5437 7.61438 14.0625 7.67063V2.01938ZM7.96688 6.63562C8.23312 5.91563 8.53687 5.24062 8.86875 4.61438C9.19295 4.00135 9.56736 3.41623 9.98812 2.865C8.39188 3.5265 6.94172 4.49624 5.72063 5.71875C6.39937 6.06375 7.15125 6.37313 7.96688 6.6375V6.63562ZM6.57938 14.0625C6.64687 12.0562 6.93187 10.1494 7.39687 8.4225C6.38194 8.09792 5.39954 7.67923 4.4625 7.17188C2.96915 9.17691 2.08279 11.5685 1.90875 14.0625H6.5775H6.57938ZM9.20438 8.92312C8.76234 10.6027 8.51076 12.3267 8.45437 14.0625H14.0625V9.54562C12.3562 9.48938 10.7194 9.27375 9.20438 8.92312ZM15.9375 9.54375V14.0625H21.5437C21.488 12.3267 21.2371 10.6028 20.7956 8.92312C19.2806 9.27375 17.6437 9.4875 15.9375 9.54562V9.54375ZM8.45625 15.9375C8.52188 17.7881 8.78625 19.5263 9.20438 21.0769C10.8001 20.7147 12.427 20.5069 14.0625 20.4562V15.9375H8.45625ZM15.9375 15.9375V20.4544C17.6437 20.5106 19.2806 20.7262 20.7956 21.0769C21.2137 19.5263 21.4781 17.7881 21.5456 15.9375H15.9375ZM9.78375 22.8675C10.0087 23.4525 10.2562 24 10.5244 24.5025C11.5594 26.4431 12.8081 27.5963 14.0625 27.9806V22.3312C12.5437 22.3875 11.1056 22.575 9.78375 22.8694V22.8675ZM9.99 27.135C9.56856 26.5839 9.19352 25.9987 8.86875 25.3856C8.52342 24.7321 8.22212 24.0562 7.96688 23.3625C7.19556 23.6104 6.44457 23.9175 5.72063 24.2812C6.94172 25.5038 8.39188 26.4735 9.98812 27.135H9.99ZM7.39687 21.5775C6.91008 19.7348 6.63518 17.8425 6.5775 15.9375H1.90875C2.08269 18.4315 2.96905 20.8231 4.4625 22.8281C5.34375 22.3444 6.32812 21.9244 7.39687 21.5775ZM20.0119 27.135C21.6073 26.4739 23.0568 25.5048 24.2775 24.2831C23.5542 23.9195 22.8038 23.6123 22.0331 23.3644C21.7778 24.0574 21.4765 24.7327 21.1313 25.3856C20.8071 25.9987 20.4327 26.5838 20.0119 27.135ZM15.9375 22.3294V27.9806C17.1938 27.5981 18.4406 26.4431 19.4756 24.5025C19.7437 24 19.9931 23.4525 20.2162 22.8675C18.8093 22.559 17.3771 22.3795 15.9375 22.3312V22.3294ZM22.6031 21.5775C23.6719 21.9244 24.6562 22.3444 25.5375 22.8281C27.0309 20.8231 27.9173 18.4315 28.0913 15.9375H23.4225C23.3648 17.8425 23.0899 19.7348 22.6031 21.5775ZM28.0913 14.0625C27.9173 11.5685 27.0309 9.17686 25.5375 7.17188C24.6562 7.65562 23.6719 8.07563 22.6031 8.4225C23.0681 10.1475 23.3531 12.0562 23.4225 14.0625H28.0913ZM21.1313 4.61438C21.4631 5.24062 21.7669 5.91563 22.035 6.63562C22.8051 6.38765 23.5548 6.08048 24.2775 5.71688C23.0566 4.49592 21.6071 3.52748 20.0119 2.86688C20.4206 3.3975 20.7956 3.98625 21.1313 4.61438ZM20.2162 7.1325C20.0032 6.57279 19.7559 6.02675 19.4756 5.4975C18.4406 3.55687 17.1938 2.40375 15.9375 2.01938V7.66875C17.4562 7.6125 18.8944 7.425 20.2162 7.13062V7.1325Z" fill="black"/>
</g>
<defs>
<clipPath id="clip0_351_2135">
<rect width="30" height="30" fill="white"/>
</clipPath>
</defs>
</svg>
