<svg width="34" height="34" viewBox="0 0 34 34" fill="none" xmlns="http://www.w3.org/2000/svg">
<g clip-path="url(#clip0_361_1512)">
<path d="M25.1542 8.1935C27.4795 10.3665 28.8463 13.3742 28.954 16.555C29.0617 19.7358 27.9014 22.8291 25.7283 25.1543C23.5553 27.4796 20.5476 28.8465 17.3668 28.9541C14.1861 29.0618 11.0928 27.9015 8.7675 25.7285C6.44222 23.5555 5.07539 20.5478 4.96772 17.367C4.86004 14.1862 6.02034 11.0929 8.19335 8.76765C10.3664 6.44237 13.3741 5.07554 16.5549 4.96787C19.7356 4.8602 22.8289 6.02049 25.1542 8.1935ZM10.5751 16.4258C10.3761 16.4325 10.1879 16.5181 10.0519 16.6636C9.91588 16.8091 9.84327 17.0027 9.85001 17.2017C9.85675 17.4008 9.94228 17.589 10.0878 17.725C10.2333 17.861 10.4269 17.9336 10.6259 17.9268L16.2368 17.7358L16.4256 23.3467C16.429 23.4453 16.4517 23.5422 16.4925 23.632C16.5333 23.7218 16.5914 23.8026 16.6634 23.87C16.7355 23.9373 16.8201 23.9898 16.9124 24.0244C17.0048 24.0591 17.103 24.0752 17.2016 24.0718C17.4006 24.0651 17.5888 23.9796 17.7248 23.834C17.7921 23.762 17.8446 23.6774 17.8793 23.5851C17.9139 23.4927 17.93 23.3945 17.9267 23.2959L17.7357 17.6851L23.3466 17.4962C23.4451 17.4929 23.5421 17.4702 23.6318 17.4294C23.7216 17.3886 23.8025 17.3305 23.8698 17.2584C23.9372 17.1864 23.9896 17.1018 24.0243 17.0094C24.0589 16.9171 24.075 16.8188 24.0717 16.7203C24.0683 16.6217 24.0456 16.5248 24.0048 16.435C23.964 16.3452 23.9059 16.2644 23.8339 16.197C23.7618 16.1297 23.6772 16.0772 23.5849 16.0426C23.4926 16.0079 23.3943 15.9918 23.2958 15.9952L17.6849 16.1862L17.4961 10.5753C17.4927 10.4767 17.47 10.3798 17.4292 10.29C17.3884 10.2002 17.3303 10.1194 17.2583 10.052C17.1862 9.98469 17.1016 9.93221 17.0093 9.89757C16.9169 9.86294 16.8187 9.84683 16.7201 9.85016C16.6216 9.8535 16.5246 9.87622 16.4349 9.91702C16.3451 9.95782 16.2642 10.0159 16.1969 10.088C16.1295 10.16 16.0771 10.2446 16.0424 10.3369C16.0078 10.4293 15.9917 10.5275 15.995 10.6261L16.186 16.2369L10.5751 16.4258Z" fill="black"/>
</g>
<defs>
<clipPath id="clip0_361_1512">
<rect width="24" height="24" fill="white" transform="translate(0 17.5352) rotate(-46.9388)"/>
</clipPath>
</defs>
</svg>
